# xmcd
#
# Track frame offsets:
#	150
#	15607
#	27311
#	39703
#	52327
#	72581
#	84189
#	100451
#	114299
#	127408
#	147218
#	163763
#	175357
#	184623
#
# Disc length: 2594 seconds
#
# Revision: 1
# Processed by: cddbd v1.5.2PL0 Copyright (c) Steve Scherf et al.
# Submitted via: audiograbber 1.83.01
#
DISCID=cb0a200e
DTITLE=Ross Nickerson - Let's Kick Some Ass
DYEAR=1900
DGENRE=Bluegrass
TTITLE0=Roundhouse
TTITLE1=Cluck Old Hen
TTITLE2=Kentucky Mandolin
TTITLE3=Dixie Hoedown
TTITLE4=Old Daggerfield
TTITLE5=Little Maggie
TTITLE6=Don't This Road Look Rough and Rocky
TTITLE7=Bluegrass Breakdown
TTITLE8=Lady Be Good
TTITLE9=Jerusalem Ridge
TTITLE10=Feeling Low
TTITLE11=Wheel Hoss
TTITLE12=You Can't Stop Me From Dreaming
TTITLE13=John Henry
EXTD=
EXTT0=
EXTT1=
EXTT2=
EXTT3=
EXTT4=
EXTT5=
EXTT6=
EXTT7=
EXTT8=
EXTT9=
EXTT10=
EXTT11=
EXTT12=
EXTT13=
PLAYORDER=
